<?xml version="1.0" encoding="UTF-8" standalone="no"?>
<svg
   width="57.001999"
   height="57.001999"
   version="1.1"
   id="svg255"
   sodipodi:docname="icon.svg"
   xml:space="preserve"
   inkscape:version="1.2.2 (732a01da63, 2022-12-09)"
   xmlns:inkscape="http://www.inkscape.org/namespaces/inkscape"
   xmlns:sodipodi="http://sodipodi.sourceforge.net/DTD/sodipodi-0.dtd"
   xmlns="http://www.w3.org/2000/svg"
   xmlns:svg="http://www.w3.org/2000/svg"
   xmlns:sketch="http://www.bohemiancoding.com/sketch/ns"><sodipodi:namedview
     id="namedview257"
     pagecolor="#505050"
     bordercolor="#eeeeee"
     borderopacity="1"
     inkscape:showpageshadow="0"
     inkscape:pageopacity="0"
     inkscape:pagecheckerboard="0"
     inkscape:deskcolor="#505050"
     showgrid="false"
     inkscape:zoom="8.9272231"
     inkscape:cx="1.0081522"
     inkscape:cy="29.236415"
     inkscape:window-width="3840"
     inkscape:window-height="2126"
     inkscape:window-x="-11"
     inkscape:window-y="-11"
     inkscape:window-maximized="1"
     inkscape:current-layer="svg255" /><defs
     id="defs249"><linearGradient
       id="linearGradient927"
       x1="7.9373002"
       x2="7.9373002"
       y1="15.081"
       y2="1.852"
       gradientTransform="scale(3.7796)"
       gradientUnits="userSpaceOnUse"><stop
         stop-color="#8f3cec"
         offset="0"
         id="stop244" /><stop
         stop-color="#f170ff"
         offset="1"
         id="stop246" /></linearGradient><linearGradient
       id="linearGradient862-3"
       x1="7.9373002"
       x2="7.9373002"
       y1="15.081"
       y2="1.852"
       gradientTransform="scale(3.7796)"
       gradientUnits="userSpaceOnUse"><stop
         stop-color="#f1efeb"
         offset="0"
         id="stop1119" /><stop
         stop-color="#fdfcfc"
         offset="1"
         id="stop1121" /></linearGradient><linearGradient
       id="linearGradient1114"
       x1="7.9373002"
       x2="7.9373002"
       y1="15.081"
       y2="1.852"
       gradientTransform="matrix(4.4594561,0,0,4.4594561,-9.2561856,-9.2191377)"
       gradientUnits="userSpaceOnUse"><stop
         stop-color="#b81e31"
         offset="0"
         id="stop241" /><stop
         stop-color="#ff5c5c"
         offset="1"
         id="stop243" /></linearGradient></defs><rect
     x="-4.5366859"
     y="-4.5366859"
     width="66.075371"
     height="66.075371"
     rx="15.340736"
     ry="15.340736"
     fill="url(#linearGradient1114)"
     stroke-width="4.45945"
     id="rect250"
     style="fill:url(#linearGradient1114)" /><path
     d="m 10.495703,38.32207 v 4.910535 h 4.910535 c 0,-2.717162 -2.193373,-4.910535 -4.910535,-4.910535 z m 0,-6.54738 v 3.27369 c 4.517692,0 8.184226,3.666533 8.184226,8.184225 h 3.27369 c 0,-6.334589 -5.123326,-11.457915 -11.457916,-11.457915 z m 0,-6.547381 V 28.501 c 8.135119,0 14.731605,6.596486 14.731605,14.731605 h 3.273691 c 0,-9.952016 -8.069647,-18.005296 -18.005296,-18.005296 z M 43.232605,13.769393 H 13.769393 c -1.800529,0 -3.27369,1.47316 -3.27369,3.27369 v 4.910536 h 3.27369 V 17.043083 H 43.232605 V 39.958915 H 31.774689 v 3.27369 h 11.457916 c 1.800529,0 3.27369,-1.473159 3.27369,-3.27369 V 17.043083 c 0,-1.80053 -1.47316,-3.27369 -3.27369,-3.27369 z"
     id="cast"
     fill="#000000"
     sketch:type="MSShapeGroup"
     style="fill:#f9f9f9;stroke:#f9f9f9;stroke-width:1.67189;stroke-dasharray:none;stroke-opacity:1" /></svg>
