<?xml version="1.0" standalone="no"?>
<!DOCTYPE svg PUBLIC "-//W3C//DTD SVG 20010904//EN"
 "http://www.w3.org/TR/2001/REC-SVG-20010904/DTD/svg10.dtd">
<svg version="1.0" xmlns="http://www.w3.org/2000/svg"
 width="700.000000pt" height="700.000000pt" viewBox="0 0 700.000000 700.000000"
 preserveAspectRatio="xMidYMid meet">
<metadata>
Created by potrace 1.14, written by Peter Selinger 2001-2017
</metadata>
<g transform="translate(0.000000,700.000000) scale(0.100000,-0.100000)"
fill="#000000" stroke="none">
<path d="M1720 6610 c-329 -25 -635 -159 -879 -386 -229 -213 -380 -496 -439
-824 -16 -87 -17 -240 -17 -1910 0 -1711 1 -1820 18 -1909 57 -296 187 -548
389 -757 243 -250 541 -396 890 -433 133 -15 3501 -15 3636 -1 342 37 631 176
873 419 218 220 347 464 406 772 17 89 18 198 18 1909 0 1670 -1 1823 -17
1910 -28 154 -65 267 -132 405 -207 423 -578 700 -1059 793 -72 13 -290 15
-1832 17 -962 2 -1797 -1 -1855 -5z m3531 -1430 c111 -38 199 -111 254 -211
57 -106 55 -44 55 -1464 0 -1413 2 -1364 -51 -1467 -30 -59 -120 -150 -180
-183 -102 -55 -96 -55 -856 -55 l-703 0 0 270 0 270 625 0 625 0 0 1160 0
1160 -1520 0 -1520 0 0 -270 0 -270 -271 0 -270 0 3 373 3 373 37 75 c60 120
157 205 283 245 32 10 393 13 1733 13 1677 1 1693 1 1753 -19z m-3520 -1240
c420 -43 804 -206 1131 -479 453 -380 728 -967 728 -1556 l0 -105 -269 0 -268
0 -6 138 c-17 395 -157 725 -426 1006 -287 298 -684 465 -1108 466 l-73 0 0
270 0 270 94 0 c52 0 140 -5 197 -10z m117 -744 c385 -97 702 -348 881 -699
90 -176 136 -364 144 -584 l3 -113 -273 0 -273 0 0 98 c0 352 -226 652 -575
762 -49 15 -107 23 -192 27 l-123 6 0 270 0 270 153 -6 c116 -4 176 -11 255
-31z m-148 -702 c137 -40 278 -144 356 -262 59 -88 95 -207 102 -329 l5 -103
-362 0 -361 0 0 362 0 361 103 -6 c56 -4 127 -14 157 -23z"/>
</g>
</svg>
